<mxfile host="app.diagrams.net" agent="Mozilla/5.0 (Windows NT 10.0; Win64; x64) AppleWebKit/537.36 (KHTML, like Gecko) Chrome/134.0.0.0 Safari/537.36 Edg/134.0.0.0" version="26.1.1">
  <diagram name="Page-1" id="udaQq8og9OzFMUcEktGX">
    <mxGraphModel dx="1980" dy="1633" grid="1" gridSize="10" guides="1" tooltips="1" connect="1" arrows="1" fold="1" page="0" pageScale="1" pageWidth="850" pageHeight="1100" background="light-dark(#ffffff, #121212)" math="0" shadow="0">
      <root>
        <mxCell id="0" />
        <mxCell id="1" parent="0" />
        <mxCell id="f8zjBH7QsQ3hvW2wlvfX-2" value="us-east-1" style="points=[[0,0],[0.25,0],[0.5,0],[0.75,0],[1,0],[1,0.25],[1,0.5],[1,0.75],[1,1],[0.75,1],[0.5,1],[0.25,1],[0,1],[0,0.75],[0,0.5],[0,0.25]];outlineConnect=0;gradientColor=none;html=1;whiteSpace=wrap;fontSize=12;fontStyle=0;container=1;pointerEvents=0;collapsible=0;recursiveResize=0;shape=mxgraph.aws4.group;grIcon=mxgraph.aws4.group_region;strokeColor=#00A4A6;fillColor=none;verticalAlign=top;align=left;spacingLeft=30;fontColor=#147EBA;dashed=1;" vertex="1" parent="1">
          <mxGeometry x="-560" y="-630" width="1040" height="670" as="geometry" />
        </mxCell>
        <mxCell id="f8zjBH7QsQ3hvW2wlvfX-3" value="VPC" style="points=[[0,0],[0.25,0],[0.5,0],[0.75,0],[1,0],[1,0.25],[1,0.5],[1,0.75],[1,1],[0.75,1],[0.5,1],[0.25,1],[0,1],[0,0.75],[0,0.5],[0,0.25]];outlineConnect=0;gradientColor=none;html=1;whiteSpace=wrap;fontSize=12;fontStyle=0;container=1;pointerEvents=0;collapsible=0;recursiveResize=0;shape=mxgraph.aws4.group;grIcon=mxgraph.aws4.group_vpc2;strokeColor=#8C4FFF;fillColor=none;verticalAlign=top;align=left;spacingLeft=30;fontColor=#AAB7B8;dashed=0;" vertex="1" parent="f8zjBH7QsQ3hvW2wlvfX-2">
          <mxGeometry x="40" y="30" width="960" height="600" as="geometry" />
        </mxCell>
        <mxCell id="f8zjBH7QsQ3hvW2wlvfX-7" value="us-east-1a" style="fillColor=none;strokeColor=#147EBA;dashed=1;verticalAlign=top;fontStyle=0;fontColor=#147EBA;whiteSpace=wrap;html=1;" vertex="1" parent="f8zjBH7QsQ3hvW2wlvfX-3">
          <mxGeometry x="40" y="40" width="880" height="240" as="geometry" />
        </mxCell>
        <mxCell id="f8zjBH7QsQ3hvW2wlvfX-8" value="us-east-1b" style="fillColor=none;strokeColor=#147EBA;dashed=1;verticalAlign=top;fontStyle=0;fontColor=#147EBA;whiteSpace=wrap;html=1;" vertex="1" parent="f8zjBH7QsQ3hvW2wlvfX-3">
          <mxGeometry x="40" y="320" width="880" height="240" as="geometry" />
        </mxCell>
        <mxCell id="f8zjBH7QsQ3hvW2wlvfX-4" style="edgeStyle=none;curved=1;rounded=0;orthogonalLoop=1;jettySize=auto;html=1;exitX=0.25;exitY=0;exitDx=0;exitDy=0;fontSize=12;startSize=8;endSize=8;" edge="1" parent="f8zjBH7QsQ3hvW2wlvfX-2" source="f8zjBH7QsQ3hvW2wlvfX-3" target="f8zjBH7QsQ3hvW2wlvfX-3">
          <mxGeometry relative="1" as="geometry" />
        </mxCell>
        <mxCell id="f8zjBH7QsQ3hvW2wlvfX-5" style="edgeStyle=none;curved=1;rounded=0;orthogonalLoop=1;jettySize=auto;html=1;exitX=1;exitY=1;exitDx=0;exitDy=0;fontSize=12;startSize=8;endSize=8;" edge="1" parent="f8zjBH7QsQ3hvW2wlvfX-2" source="f8zjBH7QsQ3hvW2wlvfX-3" target="f8zjBH7QsQ3hvW2wlvfX-3">
          <mxGeometry relative="1" as="geometry" />
        </mxCell>
      </root>
    </mxGraphModel>
  </diagram>
</mxfile>
